<?xml version="1.0" encoding="UTF-8" standalone="no"?>
<!-- Created with Inkscape (http://www.inkscape.org/) -->
<svg xmlns:rdf="http://www.w3.org/1999/02/22-rdf-syntax-ns#" xmlns="http://www.w3.org/2000/svg" height="288" width="578" version="1.1" xmlns:cc="http://creativecommons.org/ns#" xmlns:xlink="http://www.w3.org/1999/xlink" xmlns:dc="http://purl.org/dc/elements/1.1/">
<defs>
<linearGradient id="linearGradient3783" y2="953.65" gradientUnits="userSpaceOnUse" x2="303.94" y1="882.43" x1="303.94">
<stop stop-color="#0096e0" offset="0"/>
<stop stop-color="#FFF" offset="1"/>
</linearGradient>
</defs>
<metadata>
<rdf:RDF>
<cc:Work rdf:about="">
<dc:format>image/svg+xml</dc:format>
<dc:type rdf:resource="http://purl.org/dc/dcmitype/StillImage"/>
<dc:title/>
</cc:Work>
</rdf:RDF>
</metadata>
<g transform="translate(0,-764.36218)">
<g style="writing-mode:lr-tb;letter-spacing:0px;text-anchor:start;word-spacing:0px;text-align:start;" font-weight="bold" font-size="32px" stroke="#000" font-stretch="normal" font-variant="normal" font-style="normal" font-family="&apos;itc.avant-garde-gothic.pro-demi-bold&apos;" line-height="125%" fill="#000">
<path d="m70.354,967.32c1.1733,0.00003,2.2293,0.19203,3.168,0.576,0.95999,0.38403,1.7813,0.91736,2.464,1.6,0.68265,0.66136,1.2053,1.44,1.568,2.336,0.38398,0.89602,0.57598,1.856,0.576,2.88-0.000018,0.55469-0.08535,1.216-0.256,1.984-0.17068,0.76802-0.49068,1.5254-0.96,2.272-0.44802,0.74668-1.0773,1.4294-1.888,2.048-0.81068,0.59735-1.8453,1.0134-3.104,1.248l6.432,8.736h-5.312l-6.272-9.056h-0.064v9.056h-4.384v-23.68h8.032m-0.736,11.328c1.2373,0.00002,2.2293-0.30932,2.976-0.928,0.76799-0.63998,1.152-1.5466,1.152-2.72-0.000013-0.57598-0.10668-1.088-0.32-1.536-0.21335-0.44798-0.51201-0.82131-0.896-1.12-0.36268-0.29864-0.80001-0.52264-1.312-0.672-0.49068-0.17064-1.024-0.25598-1.6-0.256h-2.912v7.232h2.912"/>
<path d="m93.214,966.84c1.728,0.00003,3.3386,0.33069,4.832,0.992,1.5146,0.64003,2.8266,1.5254,3.936,2.656,1.1306,1.1094,2.016,2.4214,2.656,3.936,0.63997,1.4934,0.95997,3.0934,0.96,4.8-0.00003,1.6854-0.32003,3.2747-0.96,4.768-0.64002,1.472-1.5254,2.7627-2.656,3.872-1.1094,1.1093-2.4214,1.9947-3.936,2.656-1.4934,0.64-3.104,0.96-4.832,0.96-1.6213,0-3.1787-0.30933-4.672-0.928-1.4933-0.61866-2.816-1.472-3.968-2.56-1.1307-1.088-2.0373-2.3787-2.72-3.872-0.68267-1.4933-1.024-3.1253-1.024-4.896-0.000001-1.6426,0.30933-3.2106,0.928-4.704,0.61866-1.4933,1.472-2.8053,2.56-3.936,1.1093-1.152,2.4213-2.0586,3.936-2.72,1.5147-0.68264,3.168-1.024,4.96-1.024m-8,12.352c-0.000005,1.088,0.20266,2.1334,0.608,3.136,0.40533,0.98134,0.97066,1.856,1.696,2.624,0.72532,0.74668,1.568,1.344,2.528,1.792,0.98132,0.42667,2.0373,0.64001,3.168,0.64,1.152,0.00001,2.208-0.22399,3.168-0.672,0.98132-0.44799,1.824-1.0453,2.528-1.792,0.72531-0.74666,1.2906-1.6107,1.696-2.592,0.40531-1.0026,0.60798-2.048,0.608-3.136-0.00002-1.1093-0.20269-2.1546-0.608-3.136-0.40535-1.0026-0.97069-1.8773-1.696-2.624-0.72535-0.76798-1.5787-1.376-2.56-1.824-0.96002-0.44798-2.016-0.67198-3.168-0.672-1.088,0.00002-2.1227,0.22402-3.104,0.672-0.96001,0.42669-1.8027,1.024-2.528,1.792-0.72534,0.74669-1.3013,1.6214-1.728,2.624-0.40534,1.0027-0.608,2.0587-0.608,3.168"/>
<path d="m119.99,966.84c1.1733,0.00003,2.3253,0.17069,3.456,0.512,1.1306,0.32003,2.1866,0.78936,3.168,1.408,0.98131,0.61869,1.856,1.376,2.624,2.272,0.78931,0.89602,1.4293,1.9094,1.92,3.04h-4.992c-0.85335-0.98131-1.792-1.7493-2.816-2.304-1.0027-0.55464-2.176-0.83198-3.52-0.832-1.0667,0.00002-2.0693,0.23469-3.008,0.704-0.93868,0.44802-1.76,1.056-2.464,1.824-0.68267,0.76802-1.2267,1.6427-1.632,2.624-0.40534,0.98135-0.60801,1.9947-0.608,3.04-0.00001,1.0667,0.20266,2.1014,0.608,3.104,0.42666,0.98134,0.99199,1.856,1.696,2.624,0.70399,0.76801,1.536,1.3867,2.496,1.856,0.95999,0.44801,1.984,0.67201,3.072,0.672,1.1093,0.00001,2.1333-0.22399,3.072-0.672,0.93865-0.44799,1.8986-1.216,2.88-2.304h5.088c-0.44802,1.0667-1.056,2.0373-1.824,2.912-0.76802,0.85334-1.6427,1.5893-2.624,2.208-0.96002,0.61867-1.9947,1.0987-3.104,1.44-1.1094,0.34134-2.24,0.512-3.392,0.512-1.6427,0-3.2107-0.32-4.704-0.96s-2.8053-1.5147-3.936-2.624c-1.1307-1.1307-2.0373-2.4533-2.72-3.968-0.66133-1.5146-0.992-3.136-0.992-4.864,0-1.6426,0.32-3.2,0.96-4.672,0.64-1.4933,1.5147-2.7946,2.624-3.904,1.1093-1.1306,2.4107-2.016,3.904-2.656,1.4933-0.66131,3.0827-0.99197,4.768-0.992"/>
<path d="m138.82,967.32,0,10.24,0.064,0,7.392-10.24,5.152,0-8.928,11.648,8.928,12.032-5.152,0-7.392-10.4-0.064,0,0,10.4-4.384,0,0-23.68,4.384,0"/>
<path d="m166.09,967.32,0,4.096-8.352,0,0,5.792,8,0,0,4.096-8,0,0,5.6,8.352,0,0,4.096-12.736,0,0-23.68,12.736,0"/>
<path d="m181.4,967.32,0,4.096-4.416,0,0,19.584-4.384,0,0-19.584-4.384,0,0-4.096,13.184,0"/>
<path d="m191.54,967.32c1.1733,0.00003,2.2293,0.19203,3.168,0.576,0.95999,0.38403,1.7813,0.91736,2.464,1.6,0.68265,0.66136,1.2053,1.44,1.568,2.336,0.38398,0.89602,0.57598,1.856,0.576,2.88-0.00002,0.55469-0.0854,1.216-0.256,1.984-0.17068,0.76802-0.49068,1.5254-0.96,2.272-0.44802,0.74668-1.0774,1.4294-1.888,2.048-0.81068,0.59735-1.8454,1.0134-3.104,1.248l6.432,8.736h-5.312l-6.272-9.056h-0.064v9.056h-4.384v-23.68h8.032m-0.736,11.328c1.2373,0.00002,2.2293-0.30932,2.976-0.928,0.76799-0.63998,1.152-1.5466,1.152-2.72-0.00001-0.57598-0.10668-1.088-0.32-1.536-0.21335-0.44798-0.51201-0.82131-0.896-1.12-0.36268-0.29864-0.80001-0.52264-1.312-0.672-0.49068-0.17064-1.024-0.25598-1.6-0.256h-2.912v7.232h2.912"/>
<path d="m204.13,967.32,5.152,10.88,5.184-10.88,4.832,0-7.808,14.944,0,8.736-4.384,0,0-8.736-7.776-14.944,4.8,0"/>
<path d="m241.65,967.32,9.92,23.68-4.832,0-2.528-6.112-8.48,0-2.528,6.112-4.832,0,9.856-23.68,3.424,0m-1.76,6.176-2.688,7.264,5.44,0-2.688-7.264-0.064,0"/>
<path d="m260.03,966.84c0.91732,0.00003,1.7813,0.17069,2.592,0.512,0.83199,0.32003,1.5573,0.77869,2.176,1.376,0.63999,0.57603,1.152,1.28,1.536,2.112,0.40532,0.83202,0.63999,1.7494,0.704,2.752h-4.48v-0.032c-0.064-0.76798-0.32001-1.3973-0.768-1.888-0.42668-0.49064-1.056-0.73598-1.888-0.736-0.68267,0.00002-1.2587,0.22402-1.728,0.672-0.46934,0.44802-0.70401,1.024-0.704,1.728-0.00001,0.76802,0.24533,1.3867,0.736,1.856,0.51199,0.46935,1.28,0.85335,2.304,1.152,2.496,0.74668,4.2986,1.7174,5.408,2.912,1.1306,1.1734,1.696,2.7307,1.696,4.672-0.00002,1.152-0.20268,2.1973-0.608,3.136-0.38401,0.93867-0.92801,1.7387-1.632,2.4-0.68268,0.64-1.4934,1.1413-2.432,1.504-0.91734,0.34134-1.92,0.512-3.008,0.512-1.024,0-1.9947-0.17066-2.912-0.512-0.91734-0.36266-1.7173-0.864-2.4-1.504-0.68267-0.63999-1.2373-1.408-1.664-2.304-0.42667-0.89599-0.672-1.8773-0.736-2.944h4.608c0.10666,0.98134,0.42666,1.76,0.96,2.336,0.55466,0.55467,1.28,0.83201,2.176,0.832,0.44799,0.00001,0.86399-0.0747,1.248-0.224,0.40532-0.14933,0.75732-0.36266,1.056-0.64,0.29866-0.27733,0.53332-0.59732,0.704-0.96,0.17066-0.36266,0.25599-0.75732,0.256-1.184-0.00001-0.87466-0.26668-1.5787-0.8-2.112-0.53334-0.53332-1.28-0.97065-2.24-1.312-0.93867-0.34132-1.8347-0.68265-2.688-1.024-0.85334-0.34132-1.6107-0.76798-2.272-1.28-0.66134-0.53332-1.184-1.1946-1.568-1.984-0.384-0.81065-0.576-1.8346-0.576-3.072,0-1.0026,0.18133-1.92,0.544-2.752,0.384-0.83198,0.88533-1.536,1.504-2.112,0.64-0.59731,1.376-1.056,2.208-1.376,0.85333-0.34131,1.7493-0.51197,2.688-0.512"/>
<path d="m276.65,966.84c0.91732,0.00003,1.7813,0.17069,2.592,0.512,0.83199,0.32003,1.5573,0.77869,2.176,1.376,0.63999,0.57603,1.152,1.28,1.536,2.112,0.40532,0.83202,0.63999,1.7494,0.704,2.752h-4.48v-0.032c-0.064-0.76798-0.32001-1.3973-0.768-1.888-0.42668-0.49064-1.056-0.73598-1.888-0.736-0.68267,0.00002-1.2587,0.22402-1.728,0.672-0.46934,0.44802-0.70401,1.024-0.704,1.728-0.00001,0.76802,0.24533,1.3867,0.736,1.856,0.51199,0.46935,1.28,0.85335,2.304,1.152,2.496,0.74668,4.2986,1.7174,5.408,2.912,1.1306,1.1734,1.696,2.7307,1.696,4.672-0.00002,1.152-0.20268,2.1973-0.608,3.136-0.38401,0.93867-0.92801,1.7387-1.632,2.4-0.68268,0.64-1.4934,1.1413-2.432,1.504-0.91734,0.34134-1.92,0.512-3.008,0.512-1.024,0-1.9947-0.17066-2.912-0.512-0.91734-0.36266-1.7173-0.864-2.4-1.504-0.68267-0.63999-1.2373-1.408-1.664-2.304-0.42667-0.89599-0.672-1.8773-0.736-2.944h4.608c0.10666,0.98134,0.42666,1.76,0.96,2.336,0.55466,0.55467,1.28,0.83201,2.176,0.832,0.44799,0.00001,0.86399-0.0747,1.248-0.224,0.40532-0.14933,0.75732-0.36266,1.056-0.64,0.29866-0.27733,0.53332-0.59732,0.704-0.96,0.17066-0.36266,0.25599-0.75732,0.256-1.184-0.00001-0.87466-0.26668-1.5787-0.8-2.112-0.53334-0.53332-1.28-0.97065-2.24-1.312-0.93867-0.34132-1.8347-0.68265-2.688-1.024-0.85334-0.34132-1.6107-0.76798-2.272-1.28-0.66134-0.53332-1.184-1.1946-1.568-1.984-0.384-0.81065-0.576-1.8346-0.576-3.072,0-1.0026,0.18133-1.92,0.544-2.752,0.384-0.83198,0.88533-1.536,1.504-2.112,0.64-0.59731,1.376-1.056,2.208-1.376,0.85333-0.34131,1.7493-0.51197,2.688-0.512"/>
<path d="m298.53,966.84c1.728,0.00003,3.3386,0.33069,4.832,0.992,1.5146,0.64003,2.8266,1.5254,3.936,2.656,1.1306,1.1094,2.016,2.4214,2.656,3.936,0.63997,1.4934,0.95997,3.0934,0.96,4.8-0.00003,1.6854-0.32003,3.2747-0.96,4.768-0.64002,1.472-1.5254,2.7627-2.656,3.872-1.1094,1.1093-2.4214,1.9947-3.936,2.656-1.4934,0.64-3.104,0.96-4.832,0.96-1.6213,0-3.1787-0.30933-4.672-0.928-1.4933-0.61866-2.816-1.472-3.968-2.56-1.1307-1.088-2.0373-2.3787-2.72-3.872-0.68267-1.4933-1.024-3.1253-1.024-4.896,0-1.6426,0.30933-3.2106,0.928-4.704,0.61866-1.4933,1.472-2.8053,2.56-3.936,1.1093-1.152,2.4213-2.0586,3.936-2.72,1.5147-0.68264,3.168-1.024,4.96-1.024m-8,12.352c-0.00001,1.088,0.20266,2.1334,0.608,3.136,0.40533,0.98134,0.97066,1.856,1.696,2.624,0.72533,0.74668,1.568,1.344,2.528,1.792,0.98132,0.42667,2.0373,0.64001,3.168,0.64,1.152,0.00001,2.208-0.22399,3.168-0.672,0.98132-0.44799,1.824-1.0453,2.528-1.792,0.72531-0.74666,1.2906-1.6107,1.696-2.592,0.40531-1.0026,0.60798-2.048,0.608-3.136-0.00002-1.1093-0.20269-2.1546-0.608-3.136-0.40535-1.0026-0.97069-1.8773-1.696-2.624-0.72535-0.76798-1.5787-1.376-2.56-1.824-0.96002-0.44798-2.016-0.67198-3.168-0.672-1.088,0.00002-2.1227,0.22402-3.104,0.672-0.96001,0.42669-1.8027,1.024-2.528,1.792-0.72534,0.74669-1.3013,1.6214-1.728,2.624-0.40534,1.0027-0.60801,2.0587-0.608,3.168"/>
<path d="m325.31,966.84c1.1733,0.00003,2.3253,0.17069,3.456,0.512,1.1306,0.32003,2.1866,0.78936,3.168,1.408,0.98131,0.61869,1.856,1.376,2.624,2.272,0.78931,0.89602,1.4293,1.9094,1.92,3.04h-4.992c-0.85335-0.98131-1.792-1.7493-2.816-2.304-1.0027-0.55464-2.176-0.83198-3.52-0.832-1.0667,0.00002-2.0693,0.23469-3.008,0.704-0.93868,0.44802-1.76,1.056-2.464,1.824-0.68267,0.76802-1.2267,1.6427-1.632,2.624-0.40534,0.98135-0.60801,1.9947-0.608,3.04-0.00001,1.0667,0.20266,2.1014,0.608,3.104,0.42666,0.98134,0.99199,1.856,1.696,2.624,0.70399,0.76801,1.536,1.3867,2.496,1.856,0.95999,0.44801,1.984,0.67201,3.072,0.672,1.1093,0.00001,2.1333-0.22399,3.072-0.672,0.93865-0.44799,1.8986-1.216,2.88-2.304h5.088c-0.44802,1.0667-1.056,2.0373-1.824,2.912-0.76802,0.85334-1.6427,1.5893-2.624,2.208-0.96002,0.61867-1.9947,1.0987-3.104,1.44-1.1094,0.34134-2.24,0.512-3.392,0.512-1.6427,0-3.2107-0.32-4.704-0.96s-2.8053-1.5147-3.936-2.624c-1.1307-1.1307-2.0373-2.4533-2.72-3.968-0.66133-1.5146-0.992-3.136-0.992-4.864,0-1.6426,0.32-3.2,0.96-4.672,0.64-1.4933,1.5147-2.7946,2.624-3.904,1.1093-1.1306,2.4107-2.016,3.904-2.656,1.4933-0.66131,3.0827-0.99197,4.768-0.992"/>
<path d="m343.59,967.32,0,23.68-4.384,0,0-23.68,4.384,0"/>
<path d="m359.34,967.32,9.92,23.68-4.832,0-2.528-6.112-8.48,0-2.528,6.112-4.832,0,9.856-23.68,3.424,0m-1.76,6.176-2.688,7.264,5.44,0-2.688-7.264-0.064,0"/>
<path d="m380.59,967.32,0,4.096-4.416,0,0,19.584-4.384,0,0-19.584-4.384,0,0-4.096,13.184,0"/>
<path d="m387.34,967.32,0,23.68-4.384,0,0-23.68,4.384,0"/>
<path d="m403.03,966.84c1.728,0.00003,3.3386,0.33069,4.832,0.992,1.5146,0.64003,2.8266,1.5254,3.936,2.656,1.1306,1.1094,2.016,2.4214,2.656,3.936,0.63997,1.4934,0.95997,3.0934,0.96,4.8-0.00003,1.6854-0.32003,3.2747-0.96,4.768-0.64002,1.472-1.5254,2.7627-2.656,3.872-1.1094,1.1093-2.4214,1.9947-3.936,2.656-1.4934,0.64-3.104,0.96-4.832,0.96-1.6213,0-3.1787-0.30933-4.672-0.928-1.4933-0.61866-2.816-1.472-3.968-2.56-1.1307-1.088-2.0373-2.3787-2.72-3.872-0.68267-1.4933-1.024-3.1253-1.024-4.896,0-1.6426,0.30933-3.2106,0.928-4.704,0.61866-1.4933,1.472-2.8053,2.56-3.936,1.1093-1.152,2.4213-2.0586,3.936-2.72,1.5147-0.68264,3.168-1.024,4.96-1.024m-8,12.352c-0.00001,1.088,0.20266,2.1334,0.608,3.136,0.40533,0.98134,0.97066,1.856,1.696,2.624,0.72533,0.74668,1.568,1.344,2.528,1.792,0.98132,0.42667,2.0373,0.64001,3.168,0.64,1.152,0.00001,2.208-0.22399,3.168-0.672,0.98132-0.44799,1.824-1.0453,2.528-1.792,0.72531-0.74666,1.2906-1.6107,1.696-2.592,0.40531-1.0026,0.60798-2.048,0.608-3.136-0.00002-1.1093-0.20269-2.1546-0.608-3.136-0.40535-1.0026-0.97069-1.8773-1.696-2.624-0.72535-0.76798-1.5787-1.376-2.56-1.824-0.96002-0.44798-2.016-0.67198-3.168-0.672-1.088,0.00002-2.1227,0.22402-3.104,0.672-0.96001,0.42669-1.8027,1.024-2.528,1.792-0.72534,0.74669-1.3013,1.6214-1.728,2.624-0.40534,1.0027-0.60801,2.0587-0.608,3.168"/>
<path d="m423.69,967.32,9.792,17.216,0.064,0,0-17.216,4.384,0,0,23.68-4.896,0-9.888-17.216-0.064,0,0,17.216-4.384,0,0-23.68,4.992,0"/>
<path d="m446.74,986.74,0,4.608c-0.00001,1.1733-0.36267,2.1547-1.088,2.944-0.72534,0.81067-1.7707,1.216-3.136,1.216v-2.144c0.74666-0.14933,1.2373-0.384,1.472-0.704,0.256-0.29866,0.384-0.85333,0.384-1.664h-1.888v-4.256h4.256"/>
<path d="m464.71,967.32,0,23.68-4.384,0,0-23.68,4.384,0"/>
<path d="m474.19,967.32,9.792,17.216,0.064,0,0-17.216,4.384,0,0,23.68-4.896,0-9.888-17.216-0.064,0,0,17.216-4.384,0,0-23.68,4.992,0"/>
<path d="m503.99,966.84c1.1733,0.00003,2.3253,0.17069,3.456,0.512,1.1306,0.32003,2.1866,0.78936,3.168,1.408,0.98131,0.61869,1.856,1.376,2.624,2.272,0.78931,0.89602,1.4293,1.9094,1.92,3.04h-4.992c-0.85335-0.98131-1.792-1.7493-2.816-2.304-1.0027-0.55464-2.176-0.83198-3.52-0.832-1.0667,0.00002-2.0693,0.23469-3.008,0.704-0.93868,0.44802-1.76,1.056-2.464,1.824-0.68267,0.76802-1.2267,1.6427-1.632,2.624-0.40534,0.98135-0.60801,1.9947-0.608,3.04-0.00001,1.0667,0.20266,2.1014,0.608,3.104,0.42666,0.98134,0.99199,1.856,1.696,2.624,0.70399,0.76801,1.536,1.3867,2.496,1.856,0.95999,0.44801,1.984,0.67201,3.072,0.672,1.1093,0.00001,2.1333-0.22399,3.072-0.672,0.93865-0.44799,1.8986-1.216,2.88-2.304h5.088c-0.44802,1.0667-1.056,2.0373-1.824,2.912-0.76802,0.85334-1.6427,1.5893-2.624,2.208-0.96002,0.61867-1.9947,1.0987-3.104,1.44-1.1094,0.34134-2.24,0.512-3.392,0.512-1.6427,0-3.2107-0.32-4.704-0.96s-2.8053-1.5147-3.936-2.624c-1.1307-1.1307-2.0373-2.4533-2.72-3.968-0.66133-1.5146-0.992-3.136-0.992-4.864,0-1.6426,0.32-3.2,0.96-4.672,0.64-1.4933,1.5147-2.7946,2.624-3.904,1.1093-1.1306,2.4107-2.016,3.904-2.656,1.4933-0.66131,3.0827-0.99197,4.768-0.992"/>
<path d="m522.18,986.74,0,4.256-4.256,0,0-4.256,4.256,0"/>
</g>
<path stroke-linejoin="round" style="marker-start:none;marker-mid:none;" d="m41,921.86,319,0,73-118,0,118,110.5,0,0,87.5-502.5,0z" stroke-dashoffset="0" stroke="#000" stroke-linecap="round" stroke-miterlimit="5.90000009999999975" stroke-dasharray="none" stroke-width="15" fill="none"/>
<g style="writing-mode:lr-tb;letter-spacing:0px;text-anchor:start;word-spacing:0px;text-align:start;" font-weight="bold" font-size="96px" stroke="#0096e0" font-stretch="normal" font-variant="normal" font-style="normal" font-family="Helvetica LT Std" line-height="125%" fill="url(#linearGradient3783)">
<path d="m147.64,896.19,20.441,0,0-11.963-55.013,0,0,11.963,20.441,0,0,55.672,14.13,0,0-55.672"/>
<path d="m176.5,951.86,13.847,0,0-26.47,14.601,0c10.456,0,11.021,3.5796,11.021,12.811,0,6.9708,0.5652,10.456,1.5072,13.659h15.637v-1.7898c-3.0144-1.1304-3.0144-3.5796-3.0144-13.471,0-12.623-3.0144-14.695-8.5722-17.144,6.6882-2.2608,10.456-8.6664,10.456-16.108,0-5.8404-3.297-19.123-21.289-19.123h-34.195v67.636m13.847-37.868,0-18.086,17.615,0c8.2896,0,9.891,5.2752,9.891,8.8548,0,6.6882-3.5796,9.2316-10.927,9.2316h-16.579"/>
<path d="m257.57,884.23-14.13,0,0,67.636,14.13,0,0-67.636"/>
<path d="m284.83,927.46,16.202,0c18.181,0,21.572-15.449,21.572-21.572,0-13.282-7.9128-21.666-21.007-21.666h-30.898v67.636h14.13v-24.398m0-11.681,0-19.876,11.21,0c8.7606,0,12.434,2.7318,12.434,9.3258,0,3.0144-0.00001,10.55-10.55,10.55h-13.094"/>
<path d="m330.6,918.04c0,31.745,23.55,35.608,32.499,35.608s32.499-3.8622,32.499-35.608c0-31.745-23.55-35.608-32.499-35.608s-32.499,3.8622-32.499,35.608m14.13,0c0-18.934,10.739-23.644,18.369-23.644,7.6302,0,18.369,4.71,18.369,23.644s-10.739,23.644-18.369,23.644c-7.6302,0-18.369-4.71-18.369-23.644"/>
<path d="m420.97,884.23-14.13,0,0,67.636,47.759,0,0-12.246-33.629,0,0-55.39"/>
<path d="m477.43,884.23-14.13,0,0,67.636,14.13,0,0-67.636"/>
</g>
</g>
</svg>
